<mxfile host="app.diagrams.net" modified="2020-11-14T12:59:35.600Z" agent="5.0 (Macintosh; Intel Mac OS X 10_15_6) AppleWebKit/537.36 (KHTML, like Gecko) Chrome/86.0.4240.193 Safari/537.36" etag="2f-Ks7CzL5a3yJI085hC" version="13.9.6" type="github">
  <diagram id="whDcYLUwJq02rB1dRbX7" name="Page-1">
    <mxGraphModel dx="1773" dy="1707" grid="1" gridSize="10" guides="1" tooltips="1" connect="1" arrows="1" fold="1" page="1" pageScale="1" pageWidth="827" pageHeight="1169" math="0" shadow="0">
      <root>
        <mxCell id="0" />
        <mxCell id="1" parent="0" />
        <mxCell id="PQSWv_36e3rAhxCXCkvH-9" value="" style="rounded=1;whiteSpace=wrap;html=1;sketch=1;fillColor=#f5f5f5;strokeColor=#666666;fontColor=#333333;" parent="1" vertex="1">
          <mxGeometry x="-30" y="-10" width="880" height="610" as="geometry" />
        </mxCell>
        <mxCell id="PQSWv_36e3rAhxCXCkvH-8" value="" style="rounded=1;whiteSpace=wrap;html=1;sketch=1;fillColor=#dae8fc;strokeColor=#6c8ebf;" parent="1" vertex="1">
          <mxGeometry x="20" y="40" width="770" height="500" as="geometry" />
        </mxCell>
        <mxCell id="PQSWv_36e3rAhxCXCkvH-1" value="" style="rounded=1;whiteSpace=wrap;html=1;sketch=1;fillColor=#d5e8d4;strokeColor=#82b366;" parent="1" vertex="1">
          <mxGeometry x="70" y="80" width="660" height="410" as="geometry" />
        </mxCell>
        <mxCell id="PQSWv_36e3rAhxCXCkvH-2" value="" style="rounded=1;whiteSpace=wrap;html=1;sketch=1;fillColor=#ffe6cc;strokeColor=#d79b00;" parent="1" vertex="1">
          <mxGeometry x="110" y="130" width="560" height="330" as="geometry" />
        </mxCell>
        <mxCell id="PQSWv_36e3rAhxCXCkvH-3" value="" style="rounded=1;whiteSpace=wrap;html=1;sketch=1;fillColor=#fff2cc;strokeColor=#d6b656;" parent="1" vertex="1">
          <mxGeometry x="150" y="180" width="500" height="230" as="geometry" />
        </mxCell>
        <mxCell id="PQSWv_36e3rAhxCXCkvH-4" value="" style="rounded=1;whiteSpace=wrap;html=1;sketch=1;fillColor=#f8cecc;strokeColor=#b85450;" parent="1" vertex="1">
          <mxGeometry x="200" y="220" width="380" height="160" as="geometry" />
        </mxCell>
        <mxCell id="PQSWv_36e3rAhxCXCkvH-5" value="" style="rounded=1;whiteSpace=wrap;html=1;sketch=1;fillColor=#e1d5e7;strokeColor=#9673a6;" parent="1" vertex="1">
          <mxGeometry x="245" y="245" width="280" height="110" as="geometry" />
        </mxCell>
        <mxCell id="PQSWv_36e3rAhxCXCkvH-6" value="ExchangeHandlerAdapter&lt;br&gt;（DubboProtocol中的匿名内部类）" style="rounded=1;whiteSpace=wrap;html=1;sketch=1;fillColor=#b1ddf0;strokeColor=#10739e;" parent="1" vertex="1">
          <mxGeometry x="265" y="280" width="210" height="62.5" as="geometry" />
        </mxCell>
        <mxCell id="PQSWv_36e3rAhxCXCkvH-10" value="NettyServerHandler" style="text;html=1;strokeColor=none;fillColor=none;align=center;verticalAlign=middle;whiteSpace=wrap;rounded=0;sketch=1;" parent="1" vertex="1">
          <mxGeometry x="350" y="10" width="40" height="20" as="geometry" />
        </mxCell>
        <mxCell id="PQSWv_36e3rAhxCXCkvH-12" value="NettyServer" style="text;html=1;strokeColor=none;fillColor=none;align=center;verticalAlign=middle;whiteSpace=wrap;rounded=0;sketch=1;" parent="1" vertex="1">
          <mxGeometry x="350" y="50" width="40" height="20" as="geometry" />
        </mxCell>
        <mxCell id="PQSWv_36e3rAhxCXCkvH-13" value="MultiMessageHandler" style="text;html=1;strokeColor=none;fillColor=none;align=center;verticalAlign=middle;whiteSpace=wrap;rounded=0;sketch=1;" parent="1" vertex="1">
          <mxGeometry x="350" y="100" width="40" height="20" as="geometry" />
        </mxCell>
        <mxCell id="PQSWv_36e3rAhxCXCkvH-14" value="HeartbeatHandler" style="text;html=1;strokeColor=none;fillColor=none;align=center;verticalAlign=middle;whiteSpace=wrap;rounded=0;sketch=1;" parent="1" vertex="1">
          <mxGeometry x="350" y="150" width="40" height="20" as="geometry" />
        </mxCell>
        <mxCell id="PQSWv_36e3rAhxCXCkvH-15" value="AllChannelHandler（这里默认是AllChannelHandler，可以通过SPI来确定线程模型和线程池策略）" style="text;html=1;strokeColor=none;fillColor=none;align=center;verticalAlign=middle;whiteSpace=wrap;rounded=0;sketch=1;" parent="1" vertex="1">
          <mxGeometry x="245" y="137.5" width="290" height="130" as="geometry" />
        </mxCell>
        <mxCell id="PQSWv_36e3rAhxCXCkvH-17" value="DecodeHandler" style="text;html=1;strokeColor=none;fillColor=none;align=center;verticalAlign=middle;whiteSpace=wrap;rounded=0;sketch=1;" parent="1" vertex="1">
          <mxGeometry x="340" y="225" width="40" height="20" as="geometry" />
        </mxCell>
        <mxCell id="PQSWv_36e3rAhxCXCkvH-18" value="HeaderExchangeHandler" style="text;html=1;strokeColor=none;fillColor=none;align=center;verticalAlign=middle;whiteSpace=wrap;rounded=0;sketch=1;" parent="1" vertex="1">
          <mxGeometry x="350" y="250" width="40" height="20" as="geometry" />
        </mxCell>
      </root>
    </mxGraphModel>
  </diagram>
</mxfile>
